<svg width="13" height="13" viewBox="0 0 13 13" fill="none" xmlns="http://www.w3.org/2000/svg">
<path d="M6.5 1.625C7.74531 1.625 8.75 2.62969 8.75 3.875C8.75 5.12031 7.74531 6.125 6.5 6.125C5.25469 6.125 4.25 5.12031 4.25 3.875C4.25 2.62969 5.25469 1.625 6.5 1.625ZM6.5 0.875C4.78969 0.875 3.375 2.28969 3.375 3.875C3.375 5.56031 4.78969 6.875 6.5 6.875C8.21031 6.875 9.625 5.56031 9.625 3.875C9.625 2.28969 8.21031 0.875 6.5 0.875ZM6.5 7.75C9.075 7.75 11.375 9.015 11.375 10.25V11.125H1.625V10.25C1.625 9.015 3.925 7.75 6.5 7.75ZM6.5 7C3.7975 7 0.875 8.4575 0.875 10.25V11.875C0.875 12.2025 1.1725 12.5 1.5 12.5H11.5C11.8275 12.5 12.125 12.2025 12.125 11.875V10.25C12.125 8.4575 9.2025 7 6.5 7Z" fill="#637381"/>
</svg>
