<svg width="13" height="13" viewBox="0 0 13 13" fill="none" xmlns="http://www.w3.org/2000/svg">
<path d="M10.75 8.6875L8.9375 8.5C8.70231 8.47656 8.47187 8.57031 8.3125 8.75L7.125 10.0625C5.47756 9.19122 3.80878 7.52244 2.9375 5.875L4.25 4.6875C4.42969 4.52812 4.52344 4.29769 4.5 4.0625L4.3125 2.25C4.28125 1.96016 4.04688 1.75 3.75 1.75H2.25C1.91688 1.75 1.625 2.04188 1.625 2.375C1.625 7.18813 5.81188 11.375 10.625 11.375C10.9581 11.375 11.25 11.0831 11.25 10.75V9.25C11.25 8.95312 11.0398 8.71875 10.75 8.6875Z" fill="#637381"/>
</svg>
