<svg width="13" height="13" viewBox="0 0 13 13" fill="none" xmlns="http://www.w3.org/2000/svg">
<path d="M6.5 0.875C4.06375 0.875 2.0875 2.85 2.0875 5.2875C2.0875 7.0125 3.075 8.48125 4.5375 9.1125C4.5375 9.5275 4.5675 10.0813 4.15875 10.325C3.0075 11.0312 2.275 11.7125 2.275 12.0625C2.275 12.225 2.37625 12.375 2.625 12.375H10.375C10.6237 12.375 10.725 12.225 10.725 12.0625C10.725 11.7125 9.9925 11.0312 8.84125 10.325C8.4325 10.0813 8.4625 9.5275 8.4625 9.1125C9.925 8.48125 10.9125 7.0125 10.9125 5.2875C10.9125 2.85 8.93625 0.875 6.5 0.875ZM6.5 1.625C8.45375 1.625 10.1625 3.325 10.1625 5.2875C10.1625 7.09625 8.67375 8.59375 6.865 8.5375H6.135C4.32625 8.59375 2.8375 7.09625 2.8375 5.2875C2.8375 3.325 4.54625 1.625 6.5 1.625ZM5.125 9.33125C5.4025 9.36125 5.7275 9.36875 6.11375 9.36875H6.88625C7.2725 9.36875 7.5975 9.36125 7.875 9.33125C8.68 9.345 9.37375 9.54375 9.8 9.7125C10.125 9.845 10.365 10 10.51 10.125H2.49C2.635 10 2.875 9.845 3.2 9.7125C3.62625 9.54375 4.32 9.345 5.125 9.33125Z" fill="#637381"/>
</svg>
