<svg width="13" height="13" viewBox="0 0 13 13" fill="none" xmlns="http://www.w3.org/2000/svg">
<path d="M6.5 0.875C3.3575 0.875 0.875 3.3575 0.875 6.5C0.875 9.6425 3.3575 12.125 6.5 12.125C9.6425 12.125 12.125 9.6425 12.125 6.5C12.125 3.3575 9.6425 0.875 6.5 0.875ZM6.5 1.625C9.2225 1.625 11.375 3.7775 11.375 6.5C11.375 9.2225 9.2225 11.375 6.5 11.375C3.7775 11.375 1.625 9.2225 1.625 6.5C1.625 3.7775 3.7775 1.625 6.5 1.625ZM4.875 4.375H5.875V8.375H4.875V4.375ZM7.125 4.375H8.125V8.375H7.125V4.375Z" fill="#637381"/>
</svg>
